<svg xmlns="http://www.w3.org/2000/svg" viewBox="0 0 1380.99 1380.98"><g id="图层_2" data-name="图层 2"><g id="图层_1-2" data-name="图层 1"><path d="M708.89,100.8a3.38,3.38,0,0,0,.72-2.46l0-24.62a2.66,2.66,0,0,0-3.17-3.18l-31.94,0,0,31,31.93,0A3.38,3.38,0,0,0,708.89,100.8Z"/><path d="M690.13,1279.41a2.65,2.65,0,0,0-3.09,3.27l.72,24.61a2.65,2.65,0,0,0,3.26,3.08l31.92-.93-.9-31Z"/><path d="M690.5,0C309.15,0,0,309.15,0,690.49S309.15,1381,690.5,1381,1381,1071.84,1381,690.49,1071.84,0,690.5,0Zm621.2,533.83-20,6.39-15.81-49.48-22,7,12.82,40.1-19.67,6.29L1234.3,504l-24.36,7.78,15.82,49.48-20,6.39L1183,496.42l105.92-33.85ZM1232,347.67l39.74,73.15-18.14,9.85-14.41-26.52-79.56,43.23-10.93-20.1,79.56-43.23-14.4-26.52Zm-52.81,342.82c0,269.92-218.81,488.74-488.73,488.74S201.76,960.41,201.76,690.49,420.58,201.76,690.5,201.76,1179.23,420.57,1179.23,690.49Zm-.44-413.74,20.79,26-65.65,96-14.31-17.9L1133.87,360l-24.67-30.87-23.28,9.55-15.07-18.86Zm-171-38.82,42.37-51.55q14.11-17.17,31.3-3.06L1111,207.63q17.19,14.13,3.06,31.3l-9.28,11.29-17.67-14.52,8.07-9.82a2.66,2.66,0,0,0-.44-4.47l-23.68-19.47a2.66,2.66,0,0,0-4.47.44L1026.67,251a2.65,2.65,0,0,0,.43,4.47l23.68,19.47a2.67,2.67,0,0,0,4.48-.44l10.9-13.25L1050,247.91l12.71-15.46,33.88,27.84-24.82,30.19q-14.12,17.17-31.3,3.06l-29.58-24.31Q993.67,255.11,1007.78,237.93ZM905.16,86,974,115.38l-8.23,19.29L918,114.28l-9,21.18L947.65,152l-8.11,19-38.72-16.52-10,23.52,47.77,20.39-8.23,19.29-68.82-29.37ZM784.43,55.92,857.71,71l-4.23,20.53L802.6,81.06,798,103.63l41.23,8.49L835,132.35l-41.23-8.5-5.16,25.05,50.87,10.48-4.23,20.54L762,164.82ZM651.66,49.85l58.62,0q22.25,0,22.22,22.25V99q0,18.75-15.43,21.59l18.87,40.53-24.62,0-18.45-39.25H674.48l0,39.23-22.87,0ZM535,68.7l9.32,42.85,38.49-8.38-9.32-42.84,22.36-4.86,23.64,108.66L597.16,169l-9.86-45.33L548.8,132l9.86,45.33-22.35,4.86L512.68,73.57ZM468.58,88.06,476.93,107l-27.6,12.2L486,202,465,211.22l-36.62-82.81-27.6,12.21-8.36-18.89ZM312.22,171.51l13.34,16.17-40.08,33,14.65,17.78,32.48-26.79,13.14,15.94-32.48,26.78,16.28,19.73,40.07-33.05L383,257.3l-57.72,47.6-70.75-85.79Zm-136,135.26,34.29,27.32,24.55-30.81L200.79,276,215,258.07l87,69.3-14.25,17.89-36.28-28.91-24.55,30.81,36.27,28.91L248.94,394l-87-69.3ZM137,363.88l18.43,9.32-13.62,26.94L222.57,441l-10.32,20.42-80.81-40.86-13.61,26.94-18.44-9.32ZM114.77,571.17A21.8,21.8,0,1,1,94.06,594,21.8,21.8,0,0,1,114.77,571.17ZM58.34,799.3l-4.93-34q-3.19-22,18.81-25.2l12.57-1.83,3.2,22-11,1.59A3.49,3.49,0,0,0,74.65,763a3.43,3.43,0,0,0-.35,2.54l3.93,27a3.42,3.42,0,0,0,1.06,2.33,3.5,3.5,0,0,0,2.57.35l12-1.75a4.88,4.88,0,0,0,3.41-1.61,10.12,10.12,0,0,0,1.22-4.48l2-30.16q.72-11.67,5-18.09t14.3-7.86L138,728.65q21.94-3.2,25.15,18.82l5.25,36.15q3.19,22-18.81,25.21l-13.83,2-3.21-22,12.27-1.78a2.67,2.67,0,0,0,2.69-3.6l-4.25-29.24a3.49,3.49,0,0,0-1.06-2.34,3.46,3.46,0,0,0-2.55-.35l-13.2,1.92a4.74,4.74,0,0,0-3.38,1.61,10.44,10.44,0,0,0-1.19,4.51l-2,30.16q-.7,11.65-5,18.06t-14.34,7.86l-17,2.47Q61.54,821.31,58.34,799.3Zm14,65.69,19.78-7,17.25,49,21.73-7.64-14-39.71,19.48-6.86,14,39.71L174.69,884l-17.24-49,19.78-7,24.84,70.57L97.17,935.57Zm85.12,183.88-41.86-71.94,17.84-10.39,15.18,26.09,78.27-45.55,11.5,19.77-78.26,45.55,15.18,26.08Zm33.72,43.89L254,994.9l14.82,17.48-13.63,21.24,25.56,30.13,23-10.22,15.62,18.41-106.63,46.2Zm193.7,59.18-40.82,52.79q-13.59,17.58-31.2,4l-30.28-23.41q-17.6-13.62-4-31.2l8.94-11.56,18.09,14-7.77,10a3.46,3.46,0,0,0-.94,2.38,3.38,3.38,0,0,0,1.51,2.08l24.25,18.75a2.66,2.66,0,0,0,4.46-.57l38.48-49.76A2.66,2.66,0,0,0,365,1135l-24.25-18.76a3.39,3.39,0,0,0-2.38-.93,3.43,3.43,0,0,0-2.08,1.51l-10.49,13.57,16.59,12.83-12.25,15.83-34.68-26.82,23.9-30.91q13.61-17.6,31.2-4l30.28,23.42Q398.48,1134.36,384.87,1151.94Zm107.5,148.76-69.84-26.87,7.54-19.56,48.48,18.65,8.27-21.5-39.29-15.12,7.41-19.27,39.29,15.12,9.19-23.87-48.49-18.66,7.54-19.57,69.83,26.87Zm121.09,26.6-73.69-12.93,3.62-20.65,51.17,9,4-22.69-41.46-7.27,3.57-20.34,41.46,7.27,4.42-25.19-51.17-9,3.63-20.66,73.7,12.93Zm74.34,3.82q-22.21.64-22.86-21.58l-.78-26.84q-.54-18.75,14.78-22l-20.07-40,24.62-.71,19.6,38.69,18.37-.53-1.13-39.22,22.86-.66,3.21,111.15Zm174.5-23.94-10.56-42.55-38.23,9.5,10.56,42.55-22.2,5.51-26.8-107.93,22.2-5.51,11.18,45,38.24-9.49-11.18-45,22.2-5.51,26.79,107.92Zm65.8-21.26-8.9-18.63,27.24-13-39-81.72,20.65-9.85,39,81.71,27.24-13,8.9,18.63Zm153.94-88-13.81-15.78,39.08-34.21-15.17-17.34-31.67,27.73-13.6-15.53,31.67-27.73-16.84-19.25L1022.61,1130l-13.81-15.78,56.3-49.29,73.24,83.68ZM1214,1058.7l-35.08-26.29-23.63,31.52,35.08,26.3-13.72,18.3-89-66.7,13.72-18.3,37.11,27.82,23.63-31.52L1125,992l13.71-18.31,89,66.7Zm37.61-58.3-18.7-8.78,12.82-27.32-82-38.46,9.72-20.72,82,38.47,12.82-27.33,18.7,8.78Zm11.66-240.74a21.8,21.8,0,1,1-20.71,22.84A21.8,21.8,0,0,1,1263.24,759.66Zm44.94-100.88-12.63,1.45L1293,638.14l11-1.27a2.66,2.66,0,0,0,2.8-3.52l-3.13-27.15a3.43,3.43,0,0,0-1-2.36,3.48,3.48,0,0,0-2.55-.43l-12.1,1.4a4.84,4.84,0,0,0-3.46,1.51,10.1,10.1,0,0,0-1.34,4.44l-2.93,30.08q-1,11.65-5.51,17.94t-14.53,7.44l-18.25,2.1q-22,2.55-24.57-19.55l-4.19-36.3q-2.54-22.1,19.55-24.64l13.88-1.59,2.55,22.08L1237,609.74a3.45,3.45,0,0,0-2.36,1,3.4,3.4,0,0,0-.43,2.52l3.39,29.36a2.66,2.66,0,0,0,3.52,2.79l13.25-1.53a4.74,4.74,0,0,0,3.43-1.51,10.44,10.44,0,0,0,1.32-4.48l2.93-30.07q1-11.64,5.53-17.91t14.57-7.44l17.05-2q22.08-2.55,24.64,19.54l3.93,34.09Q1330.27,656.24,1308.18,658.78Z"/><polygon points="216.95 1093.19 261.09 1073.02 243.32 1052.08 216.95 1093.19"/><polygon points="1173.81 301.56 1129.1 320.42 1146.25 341.87 1173.81 301.56"/><polygon points="444.73 589.33 502.78 589.33 487.59 614.69 687.08 732.68 886.57 614.69 871.38 589.33 929.43 589.33 1000.9 547.07 846.06 547.07 687.08 281.69 528.1 547.07 373.26 547.07 444.73 589.33"/><polygon points="687.08 799.43 320.7 564.5 687.08 1089.22 1053.46 564.5 687.08 799.43"/></g></g></svg>