<svg xmlns="http://www.w3.org/2000/svg" viewBox="0 0 2887 2887"><defs><style>.cls-1{fill:#fff88a;}</style></defs><g id="图层_2" data-name="图层 2"><g id="图层_1-2" data-name="图层 1"><path class="cls-1" d="M1443.5,0C646.27,0,0,646.27,0,1443.5S646.27,2887,1443.5,2887,2887,2240.73,2887,1443.5,2240.73,0,1443.5,0Zm-54.57,1166.73H1100.8v878.6H838v-878.6H548.31V937.17h840.62Zm953,136.16H2080.71V1193.66c0-11.62-2.16-19.54-6.34-23.76s-12.15-6.34-23.76-6.34H1787.83q-17.43,0-23.77,6.34c-4.22,4.22-6.29,12.14-6.29,23.76v595.22q0,30,30.06,30.06h262.78c20,0,30.1-10,30.1-30.06V1633.71H1893.89V1416.83h448v410q0,218.45-218.46,218.47h-410q-218.45,0-218.46-218.47V1155.64q0-218.45,218.46-218.47h410q218.45,0,218.46,218.47Z"/></g></g></svg>